<svg xmlns="http://www.w3.org/2000/svg" height="1306.6667" width="1866.6667">
  <defs>
    <clipPath id="a">
      <path d="M0 0h14400v14400H0z"/>
    </clipPath>
    <clipPath id="b">
      <path d="M7917.219 6750.136H6471.508v968.398h1445.711z"/>
    </clipPath>
    <linearGradient id="c" gradientTransform="scale(-757.70435 757.70435) rotate(90 -9.2993 -.1957)" gradientUnits="userSpaceOnUse" x2="1">
      <stop offset="0" stop-color="#e0d47d"/>
      <stop offset=".0055" stop-color="#e0d47d"/>
      <stop offset=".1923" stop-color="#e0ad7d"/>
      <stop offset=".6429" stop-color="#e07596"/>
      <stop offset=".7882" stop-color="#e07596"/>
      <stop offset="1" stop-color="#864a89"/>
    </linearGradient>
    <clipPath id="d">
      <path d="M0 14400h14400V0H0z"/>
    </clipPath>
    <clipPath id="e">
      <path d="M6406.65 7506.56h1104.8v-1104.8h-1104.8z"/>
    </clipPath>
    <clipPath id="f">
      <path d="M6553.65 7353.56h802.79v-802.8h-802.79z"/>
    </clipPath>
    <clipPath id="g">
      <path d="M6691.65 7221.56h534.79v-534.8h-534.79z"/>
    </clipPath>
    <clipPath id="h">
      <path d="M6821.03 7092.17h276.03v-276.03h-276.03z"/>
    </clipPath>
    <clipPath id="i">
      <path d="M7318 7382.35h644.77V6778H7318z"/>
    </clipPath>
    <clipPath id="j">
      <path d="M6170 7274.35h644.77V6670H6170z"/>
    </clipPath>
    <clipPath id="k">
      <path d="M0 14400h14400V0H0z"/>
    </clipPath>
    <clipPath id="l">
      <path d="M7575.86 7285.97h426.27v-364.82h-426.27z"/>
    </clipPath>
    <clipPath id="m">
      <path d="M6588 6959.92h69.12v-62.99H6588z"/>
    </clipPath>
    <clipPath id="n">
      <path d="M6548.33 6964.42h29.34v-50.09h-29.34z"/>
    </clipPath>
    <clipPath id="o">
      <path d="M7586 7066.41h130V6988h-130z"/>
    </clipPath>
    <clipPath id="p">
      <path d="M6792.28 7031.97h19.22v-57.47h-19.22z"/>
    </clipPath>
    <clipPath id="q">
      <path d="M6669.12 7568.89h9v-9h-9z"/>
    </clipPath>
    <clipPath id="r">
      <path d="M7452.08 7397.9h9v-9h-9z"/>
    </clipPath>
    <clipPath id="s">
      <path d="M7681.57 7531.39h9v-9h-9z"/>
    </clipPath>
    <clipPath id="t">
      <path d="M6558.13 7192.41h8.99v-9h-8.99z"/>
    </clipPath>
    <clipPath id="u">
      <path d="M6487.63 7439.9h9v-9h-9z"/>
    </clipPath>
    <clipPath id="v">
      <path d="M7581.07 7247.9h9v-9h-9z"/>
    </clipPath>
    <clipPath id="w">
      <path d="M7497.08 7622.89h9v-9h-9z"/>
    </clipPath>
  </defs>
  <g clip-path="url(#a)" transform="matrix(1.33333 0 0 -1.33333 -8667.3333 10252.667)">
    <g clip-path="url(#b)">
      <path d="M7917.219 6750.136H6471.508v968.398h1445.711z" fill="url(#c)"/>
    </g>
    <g clip-path="url(#d)">
      <g clip-path="url(#e)" opacity=".06">
        <path d="M7511.4443 6955.1689c-.56 305.081-248.333 551.946-553.414 551.386-305.08-.56-551.944-248.333-551.384-553.413.56-305.077 248.331-551.943 553.411-551.383 305.082.559 551.947 248.334 551.387 553.41" fill="#fcf059"/>
      </g>
      <g clip-path="url(#f)" opacity=".1">
        <path d="M7356.4434 6952.1572c0 221.685-179.711 401.398-401.399 401.398-221.686 0-401.399-179.713-401.399-401.398 0-221.685 179.713-401.397 401.399-401.397 221.688 0 401.399 179.712 401.399 401.397" fill="#fcf059"/>
      </g>
      <g clip-path="url(#g)" opacity=".09">
        <path d="M7226.4443 6954.1572c0 147.68-119.72 267.398-267.4 267.398-147.68 0-267.399-119.718-267.399-267.398s119.719-267.398 267.399-267.398 267.4 119.718 267.4 267.398" fill="#fcf059"/>
      </g>
      <g>
        <g clip-path="url(#h)" opacity=".1">
          <path d="M7097.0591 6954.1572c0 76.223-61.791 138.014-138.014 138.014-76.222 0-138.013-61.791-138.013-138.014 0-76.223 61.791-138.014 138.013-138.014 76.223 0 138.014 61.791 138.014 138.014" fill="#fcf059"/>
        </g>
      </g>
      <g>
        <g clip-path="url(#i)" opacity=".1">
          <path d="M7571.2207 6975.0742l391.55 2.005-1.922 375.351-59.285-7.283c.604 2.443.911 5.002.875 7.635-.23 16.558-13.837 29.793-30.395 29.563-10.499-.146-19.655-5.674-24.896-13.918-6.529 4.251-14.325 6.71-22.698 6.667-22.794-.117-41.178-18.689-41.061-41.484.048-9.38 3.227-18.009 8.533-24.914-16.055-.786-28.722-14.154-28.497-30.352.012-.834.067-1.657.144-2.471-17.88-3.734-32.94-15.026-41.746-30.353-6.088 15.334-21.084 26.145-38.577 26.055-22.795-.116-41.178-18.689-41.062-41.483.046-8.859 2.889-17.044 7.673-23.744-.526.021-1.052.029-1.583.021-14.819-.206-26.968-11.131-29.194-25.292-7.694 3.221-16.154 4.967-25.026 4.868-34.825-.392-62.739-28.939-62.349-63.763.205-18.367 8.248-34.806 20.91-46.191-7.577-5.538-12.45-14.532-12.31-24.63.003-.21.018-.418.024-.627-8.889 4.618-19.007 7.188-29.724 7.067-16.427-.184-31.312-6.637-42.418-17.054-5.945.819-12.015 1.253-18.187 1.253-72.901 0-132-59.099-132-132 0-72.902 59.099-132 132-132 72.902 0 132 59.098 132 132 0 20.888-4.859 40.638-13.498 58.195 1.035 2.227 1.946 4.522 2.719 6.879" fill="#fff"/>
        </g>
      </g>
      <g>
        <g clip-path="url(#j)" opacity=".1">
          <path d="M6561.5498 6867.0742l-391.55 2.005 1.922 375.351 59.285-7.283a30.0619 30.0619 0 0 0-.875 7.635c.23 16.558 13.837 29.793 30.395 29.563 10.499-.146 19.655-5.674 24.896-13.918 6.529 4.251 14.325 6.71 22.698 6.667 22.794-.117 41.178-18.689 41.061-41.484-.048-9.38-3.227-18.009-8.533-24.914 16.055-.786 28.722-14.154 28.497-30.352-.012-.834-.067-1.657-.144-2.471 17.88-3.734 32.94-15.026 41.746-30.353 6.088 15.334 21.084 26.145 38.577 26.055 22.795-.116 41.178-18.689 41.062-41.483-.046-8.859-2.889-17.044-7.673-23.744.526.021 1.052.029 1.583.021 14.819-.206 26.968-11.131 29.194-25.292 7.694 3.221 16.154 4.967 25.026 4.868 34.825-.392 62.739-28.939 62.349-63.763-.205-18.367-8.248-34.806-20.91-46.191 7.577-5.538 12.45-14.532 12.31-24.63-.003-.21-.018-.418-.024-.627 8.889 4.618 19.007 7.188 29.724 7.067 16.427-.184 31.312-6.637 42.418-17.054 5.945.819 12.015 1.253 18.187 1.253 72.901 0 132-59.099 132-132 0-72.902-59.099-132-132-132-72.902 0-132 59.098-132 132 0 20.888 4.859 40.638 13.498 58.195-1.035 2.227-1.946 4.522-2.719 6.879" fill="#fff"/>
        </g>
      </g>
    </g>
    <path d="M7063.603 6881.9189l79.496 35.999 9-12 19.499 7.5 20.999-14.999 41.998-9 11.999-23.999-25.499-41.998z" fill="#794b7f"/>
    <g clip-path="url(#k)">
      <g clip-path="url(#l)" opacity=".14">
        <path d="M7958.582 7138.0039c24.18 11.926 41.51 36.061 43.384 64.899 2.796 42.988-29.786 80.101-72.774 82.896-42.988 2.796-80.102-29.787-82.896-72.774-1.129-17.352 3.513-33.745 12.272-47.312-9.857-4.792-18.055-12.555-23.352-22.197-10.688 9.833-24.673 16.224-40.294 17.24-36.309 2.36-67.656-25.16-70.019-61.469-.215-3.318-.175-6.595.092-9.811-5.236 3.475-11.434 5.651-18.164 6.021-20.064 1.1-37.228-14.215-38.446-34.245-6.887 3.046-14.418 4.955-22.371 5.472-36.309 2.36-67.657-25.159-70.017-61.468-2.362-36.31 25.158-67.658 61.468-70.019 25.184-1.638 47.971 11.108 60.365 31.185l282.362-45.274z" fill="#fff"/>
      </g>
      <path d="M6340.7363 6839.1504s381.033 174.014 603.055 105.007c222.023-69.007 549.054-213.022 1032.103-252.026-768.076 0-1626.158-36-1626.158-36z" fill="#794b7f"/>
      <path d="M7121 6721s-276 220-812 108v-142z" fill="#643e68"/>
      <path d="M6803 6705c-2 2 633.126 303.063 1014 292 482-14 230-294 230-294l-70-2z" fill="#452947"/>
      <path d="M7487.583 6913.4209l131.993 100.495 16.499 4.499 47.996 47.998 19.499-7.499h22.499l10.5-19.499 55.497-14.999 91.496-68.997z" fill="#452947"/>
      <path d="M6451.6279 6938.9238l107.995 25.499 13.499-12 14.999 7.5 68.997-62.997h26.998l19.499-19.499 35.998-14.999 28.499-23.999-328.484-23.999z" fill="#643e68"/>
      <g clip-path="url(#m)" opacity=".49">
        <path d="M6588.1211 6959.9229l8.879-23.923-9-4 69.118-35.074z" fill="#fcf059"/>
      </g>
      <g clip-path="url(#n)" opacity=".49">
        <path d="M6559.6226 6964.4229l-1.289-12.756-10-3.334 18-22-2.667-12 14 22-14.667 12 10.122 4.09z" fill="#fcf059"/>
      </g>
      <g clip-path="url(#o)" opacity=".49">
        <path d="M7684.0713 7066.4131l-47.996-47.998-16.499-4.499-33.576-25.916 29 16 51 4-24 6 29 30 27-3 18 12-22-6-15 7z" fill="#fcf059"/>
      </g>
      <path d="M6792 7034.5s11-37 20-43c-12 1-10 2-10 2s7-21 16-26c-17 2-14 2-14 2s6-14 14-20c-16-4-21 1-21 1l-35 1s10 14 12 19h-13s19 21 19 27c-11-2-4 2-4 2s13 21 16 35" fill="#794b7f"/>
      <path d="M6828.5122 7021.5537s8.853-29.778 16.096-34.607c-9.658.804-8.048 1.609-8.048 1.609s5.634-16.901 12.877-20.925c-13.682 1.61-11.267 1.61-11.267 1.61s4.828-11.268 11.267-16.097c-12.877-3.219-16.901.805-16.901.805l-28.169.805s8.048 11.267 9.658 15.291h-10.463s15.292 16.902 15.292 21.731c-8.853-1.61-3.219 1.609-3.219 1.609s10.462 16.901 12.877 28.169M6739.478 7011.3447s7.81-26.269 14.2-30.529c-8.52.71-7.1 1.42-7.1 1.42s4.969-14.91 11.359-18.459c-12.069 1.42-9.939 1.42-9.939 1.42s4.259-9.94 9.939-14.201c-11.359-2.839-14.909.71-14.909.71l-24.849.711s7.099 9.94 8.519 13.49h-9.229s13.489 14.909 13.489 19.169c-7.81-1.419-2.84 1.419-2.84 1.419s9.23 14.911 11.36 24.85" fill="#794b7f"/>
      <g clip-path="url(#p)" opacity=".1">
        <path d="M6806 6974.5l3.019 2.516c-3.934 6.558-6.681 14.084-7.355 16.009.703-.384 2.99-.955 9.836-1.525-7.572 5.048-16.559 32.036-19.22 40.473.47-7.723 2.47-20.223 9.97-35.473-6 0-6.583.166-6.583.166z" fill="#fcf059"/>
      </g>
      <g clip-path="url(#q)" opacity=".15">
        <path d="M6678.1196 7564.3887c0-2.485-2.015-4.5-4.5-4.5s-4.5 2.015-4.5 4.5 2.015 4.5 4.5 4.5 4.5-2.015 4.5-4.5" fill="#fff"/>
      </g>
      <g>
        <g clip-path="url(#r)" opacity=".15">
          <path d="M7461.0801 7393.3975c0-2.485-2.015-4.5-4.5-4.5s-4.5 2.015-4.5 4.5 2.015 4.5 4.5 4.5 4.5-2.015 4.5-4.5" fill="#fff"/>
        </g>
      </g>
      <g>
        <g clip-path="url(#s)" opacity=".15">
          <path d="M7690.5684 7526.8901c0-2.485-2.015-4.5-4.5-4.5s-4.5 2.015-4.5 4.5 2.015 4.5 4.5 4.5 4.5-2.015 4.5-4.5" fill="#fff"/>
        </g>
      </g>
      <g>
        <g clip-path="url(#t)" opacity=".15">
          <path d="M6567.125 7187.9072c0-2.485-2.015-4.5-4.5-4.5s-4.5 2.015-4.5 4.5 2.015 4.5 4.5 4.5 4.5-2.015 4.5-4.5" fill="#fff"/>
        </g>
      </g>
      <g>
        <g clip-path="url(#u)" opacity=".15">
          <path d="M6496.6284 7435.395c0-2.485-2.015-4.5-4.5-4.5s-4.5 2.015-4.5 4.5 2.015 4.5 4.5 4.5 4.5-2.015 4.5-4.5" fill="#fff"/>
        </g>
      </g>
      <g>
        <g clip-path="url(#v)" opacity=".15">
          <path d="M7590.0742 7243.4043c0-2.485-2.015-4.5-4.5-4.5s-4.5 2.015-4.5 4.5 2.015 4.5 4.5 4.5 4.5-2.015 4.5-4.5" fill="#fff"/>
        </g>
      </g>
      <g>
        <g clip-path="url(#w)" opacity=".15">
          <path d="M7506.0781 7618.3857c0-2.485-2.015-4.5-4.5-4.5s-4.5 2.015-4.5 4.5 2.015 4.5 4.5 4.5 4.5-2.015 4.5-4.5" fill="#fff"/>
        </g>
      </g>
    </g>
  </g>
</svg>
